<?xml version="1.0" encoding="UTF-8" standalone="no"?>
<svg
   x="0px"
   y="0px"
   width="32"
   height="32"
   viewBox="0 0 32 32"
   version="1.1"
   id="svg1"
   sodipodi:docname="car-logo.svg"
   xml:space="preserve"
   inkscape:version="1.3.2 (091e20e, 2023-11-25, custom)"
   xmlns:inkscape="http://www.inkscape.org/namespaces/inkscape"
   xmlns:sodipodi="http://sodipodi.sourceforge.net/DTD/sodipodi-0.dtd"
   xmlns="http://www.w3.org/2000/svg"
   xmlns:svg="http://www.w3.org/2000/svg"><defs
     id="defs1" /><sodipodi:namedview
     id="namedview1"
     pagecolor="#505050"
     bordercolor="#eeeeee"
     borderopacity="1"
     inkscape:showpageshadow="0"
     inkscape:pageopacity="0"
     inkscape:pagecheckerboard="0"
     inkscape:deskcolor="#505050"
     inkscape:zoom="16"
     inkscape:cx="17.65625"
     inkscape:cy="10.84375"
     inkscape:window-width="1920"
     inkscape:window-height="1111"
     inkscape:window-x="-9"
     inkscape:window-y="-9"
     inkscape:window-maximized="1"
     inkscape:current-layer="svg1" /><g
     id="g4"
     transform="matrix(1.1778608,0,0,1.1778608,38.030819,-4.1993708)"><path
       style="opacity:1;fill:#747a88;fill-opacity:1;stroke-width:3.566;stroke-linecap:round"
       d="m -23.223392,16.112281 h -6.530994 c 0,0 0.467836,-7.7847956 8.832749,-9.7871348 v 2.4327485 c 0,0 -4.042106,0.5239766 -5.913451,5.0152043 h 5.969591 v 6.811696 h -5.932164 c 0,0 1.553217,3.967252 5.894737,5.015205 v 2.432749 c 0,0 -7.653801,-1.347369 -8.832749,-9.843275 h 6.549708 z"
       id="path2" /><path
       style="opacity:1;fill:#747a88;fill-opacity:1;stroke-width:3.566;stroke-linecap:round"
       d="m -14.184795,16.112281 h 6.5309939 c 0,0 -0.467836,-7.7847956 -8.8327489,-9.7871348 v 2.4327485 c 0,0 4.042106,0.5239766 5.913451,5.0152043 h -5.969591 v 6.811696 h 5.932164 c 0,0 -1.553217,3.967252 -5.894737,5.015205 v 2.432749 c 0,0 7.6538009,-1.347369 8.8327489,-9.843275 h -6.5497079 z"
       id="path3" /><path
       style="opacity:1;fill:#747a88;fill-opacity:1;stroke-width:3.566;stroke-linecap:round"
       d="m -19.901541,6.1663019 h 2.342136 V 28.132099 h -2.395066 z"
       id="path4" /></g></svg>
