<?xml version="1.0" encoding="UTF-8" standalone="no"?>
<svg
   width="14cm"
   height="1.9940199cm"
   viewBox="0 0 242.78005 34.579162"
   class="css-1j8o68f"
   version="1.1"
   id="svg17"
   sodipodi:docname="logo.svg"
   inkscape:version="1.3.2 (091e20e, 2023-11-25, custom)"
   xml:space="preserve"
   xmlns:inkscape="http://www.inkscape.org/namespaces/inkscape"
   xmlns:sodipodi="http://sodipodi.sourceforge.net/DTD/sodipodi-0.dtd"
   xmlns="http://www.w3.org/2000/svg"
   xmlns:svg="http://www.w3.org/2000/svg"><sodipodi:namedview
     id="namedview19"
     pagecolor="#ffffff"
     bordercolor="#000000"
     borderopacity="0.25"
     inkscape:showpageshadow="2"
     inkscape:pageopacity="0.0"
     inkscape:pagecheckerboard="0"
     inkscape:deskcolor="#d1d1d1"
     inkscape:zoom="1.3048072"
     inkscape:cx="198.87995"
     inkscape:cy="55.563763"
     inkscape:window-width="1920"
     inkscape:window-height="1111"
     inkscape:window-x="-9"
     inkscape:window-y="-9"
     inkscape:window-maximized="1"
     inkscape:current-layer="g11"
     inkscape:document-units="cm" /><defs
     id="SvgjsDefs2381" /><g
     id="SvgjsG2382"
     featurekey="PG4fjM-0"
     transform="matrix(2,0,0,2,0,-19.71042)"
     fill="#3b3c98"><g
       transform="matrix(1.1103486,0,0,1.1103486,-298.65129,-157.5294)"
       id="g11"><g
         id="g9"
         transform="translate(0,0.0966009)"><path
           d="m 276.78025,157.7383 c -1.17274,0 -2.19092,0.64532 -2.74383,1.59339 -0.27406,0.47006 -0.44296,1.01181 -0.44296,1.5934 0,1.75592 1.42927,3.18679 3.18679,3.18679 1.75752,0 3.18679,-1.43087 3.18679,-3.18679 0,-0.58159 -0.1673,-1.12334 -0.44296,-1.5934 -0.55291,-0.94807 -1.5695,-1.59339 -2.74383,-1.59339 z"
           id="path3"
           sodipodi:nodetypes="scssscs"
           style="fill:#50e94b;fill-opacity:1;stroke-width:1.5934" /><path
           d="m 293.20202,157.83725 c -1.13632,0 -2.12289,0.62529 -2.65863,1.54392 -0.26555,0.45546 -0.42921,0.98039 -0.42921,1.54392 0,1.7014 1.3849,3.08784 3.08784,3.08784 1.70294,0 3.08784,-1.38644 3.08784,-3.08784 0,-0.56352 -0.16211,-1.08846 -0.42921,-1.54392 -0.53574,-0.91863 -1.52076,-1.54392 -2.65863,-1.54392 z"
           id="path5"
           style="fill:#50e94b;fill-opacity:1;stroke-width:1.54392" /><path
           d="m 293.80034,156.37047 c 0,0 -0.83539,-1.34486 -1.62132,-1.96584 -1.96782,-1.55484 -4.47887,-1.67266 -4.38599,-1.63333 2.10004,0.88921 3.77095,2.51955 3.28572,2.29434 -1.89332,-0.87877 -4.44593,-1.99963 -5.61818,-2.04793 C 283.58234,152.94032 282.56041,154 282.56041,154 H 270 v 1.16795 h 12 V 156 h -10 v 1 h 5 l 0.71662,0.48697 c 0,0 0.49819,-0.15927 1.70736,0.98591 1.20917,1.14519 0.94739,2.636 0.874,3.05492 0.01,0.53157 -0.53499,1.1202 -0.45728,1.4722 H 290 c -0.2098,-0.32869 -0.76273,-1.05709 -0.64351,-2.23879 0.11921,-1.18171 1.3596,-3.35007 3.84131,-3.50842 z"
           id="path7"
           style="opacity:1;fill:#50e94b;fill-opacity:1"
           sodipodi:nodetypes="cssssccccccccczccczcc" /></g></g></g><path
     style="font-size:45.1665px;font-family:'Bauhaus 93';-inkscape-font-specification:'Bauhaus 93, ';text-align:end;text-anchor:end;stroke-width:1.20798;stroke-linecap:round"
     d="m 75.658095,2.7119179 h 10.938762 q 9.725794,0 9.725794,7.6527221 0,3.79328 -3.330147,6.307431 4.829813,2.095126 4.829813,7.476287 0,4.12409 -2.844957,6.57208 -1.389399,1.16886 -2.977284,1.632 -1.587885,0.46313 -4.278467,0.46313 h -1.698155 v -7.74094 h 1.521723 q 1.345291,0 1.89664,-0.33081 0.551349,-0.35286 0.551349,-1.21297 0,-1.45556 -2.249503,-1.45556 h -1.720209 v -8.027637 q 2.470043,0 2.470043,-1.698155 0,-1.565831 -2.227449,-1.565831 h -1.654047 v 22.031903 h -8.953906 z m 33.411735,8.1158551 v 21.987795 h -8.24817 V 10.827773 Z M 104.9678,1.0137629 q 1.67609,0 2.88906,1.190914 1.23503,1.168859 1.23503,2.778798 0,1.720208 -1.16887,2.822906 -1.14681,1.102698 -2.95522,1.102698 -1.80843,0 -2.97729,-1.102698 -1.1468,-1.102698 -1.1468,-2.822906 0,-1.609939 1.21297,-2.778798 1.23502,-1.190914 2.91112,-1.190914 z m 17.20208,1.698155 V 32.815568 h -8.24817 V 2.7119179 Z m 12.63692,8.1158551 -4.03587,8.005586 5.99867,13.982209 h -9.13033 l -5.16063,-14.357126 3.74917,-7.630669 z m 25.07535,12.328165 h -12.5046 q -0.2867,-0.94832 -0.2867,-1.74227 0,-1.102694 0.39697,-2.161284 h 4.19025 q -0.44107,-2.447989 -2.75674,-2.447989 -1.54378,0 -2.51415,1.323237 -0.97037,1.301184 -0.97037,3.352206 0,2.13923 0.92626,3.46247 0.94832,1.32323 2.47004,1.32323 1.23503,0 2.38183,-1.23502 l 4.69749,5.64581 q -3.28604,2.58032 -7.29986,2.58032 -4.89597,0 -8.22612,-3.28604 -3.33015,-3.28604 -3.33015,-8.13791 0,-4.829817 3.3522,-8.159965 3.37426,-3.330147 8.27024,-3.330147 4.7857,0 8.02764,3.263985 3.26398,3.241932 3.26398,8.005587 0,0.48519 -0.0882,1.54378 z m 15.48187,-9.68169 v 7.93942 h -2.4921 v 11.4019 h -8.9539 V 2.7119179 h 8.9539 V 13.474248 Z M 185.83965,2.7119179 V 32.815568 h -8.95391 V 2.7119179 Z m 5.40322,8.4246101 h 8.24818 v 12.41638 q 0,1.87458 1.56583,1.87458 1.54378,0 1.54378,-1.87458 v -12.41638 h 8.24817 v 12.262 q 0,4.27847 -2.84496,7.2337 -2.84496,2.93317 -6.96905,2.93317 -4.69749,0 -7.5645,-3.41836 -2.22745,-2.66853 -2.22745,-7.41013 z M 223.41959,2.7119179 V 20.729999 q 0,4.388739 3.15371,4.388739 1.34529,0 2.27156,-0.90421 0.94832,-0.92627 0.94832,-2.22745 0,-1.345295 -0.88216,-2.249507 -0.88216,-0.926266 -2.16129,-0.926266 -0.90421,0 -2.07307,0.793942 v -9.086229 q 1.45556,-0.132324 2.2054,-0.132324 4.65338,0 7.96148,3.352201 3.33014,3.352201 3.33014,8.071743 0,4.82982 -3.37425,8.13791 -3.37426,3.3081 -8.29229,3.3081 -2.47004,0 -4.82982,-1.08065 -2.33771,-1.08064 -3.85944,-2.91112 -2.64647,-3.17577 -2.64647,-8.22612 V 2.7119179 Z"
     id="text1"
     aria-label="BikeHub" /></svg>
